# xmcd CD database file
#
# Track frame offsets:
#	150
#	26407
#	56130
#	77537
#	99882
#	132690
#	169617
#	189435
#	217467
#
# Disc length: 3075 seconds
#
# Revision: 0
# Processed by: cddbd v1.5.1PL2 Copyright (c) Steve Scherf et al.
# Submitted via: CDex 1.51
#
DISCID=7a0c0109
DTITLE=SION E CIA - BRAZILLIAN JAZZ MUSIC
DYEAR=1900
DGENRE=Jazz
TTITLE0=AS PASTORINHAS
TTITLE1=BATIDA DIFERENTE
TTITLE2=ESSES MOÇOS
TTITLE3=MEUS AMIGOS
TTITLE4=BARCELONA
TTITLE5=BAIXO DE ALBERTO
TTITLE6=ANTENOR
TTITLE7=ROBERTO SION
TTITLE8=VINICIOS DE MORAES
EXTD=
EXTT0=
EXTT1=
EXTT2=
EXTT3=
EXTT4=
EXTT5=
EXTT6=
EXTT7=
EXTT8=
PLAYORDER=
